<svg xmlns="http://www.w3.org/2000/svg" viewBox="0 0 232.29 56" width="232.29" height="56"><g fill="#141414" color="#141414" transform="translate(0 6.0) scale(1.375)"><g fill="none" stroke="currentColor" stroke-width="2.6" stroke-linecap="round"><path d="M16 12.75 Q17.955 6.425 16 1.25"/><path d="M18.541 13.974 Q24.705 11.559 27.532 6.804"/><path d="M19.169 16.723 Q24.9 20.037 30.38 19.282"/><path d="M17.41 18.928 Q18.393 25.475 22.4 29.289"/><path d="M14.59 18.928 Q10.084 23.779 9.6 29.289"/><path d="M12.831 16.723 Q6.23 16.225 1.62 19.282"/><path d="M13.459 13.974 Q9.733 8.502 4.468 6.804"/></g></g><g fill="#141414"><path d="M60.71874284744263 40.0V13.80859375H69.82422876358032Q72.37892770767212 13.80859375 74.27151209115982 14.763672590255737Q76.16409647464752 15.718751430511475 77.20706754922867 17.470706522464752Q78.25003862380981 19.22266161441803 78.25003862380981 21.601571798324585Q78.25003862380981 23.968763947486877 77.186558842659 25.714860022068024Q76.12307906150818 27.46095609664917 74.20705646276474 28.42189449071884Q72.2910338640213 29.382832884788513 69.73047590255737 29.382832884788513H61.91407895088196V27.238260865211487H69.75391411781311Q71.62891125679016 27.238260865211487 73.0029307603836 26.546858727931976Q74.37695026397705 25.855456590652466 75.1357364654541 24.586908519268036Q75.89452266693115 23.318360447883606 75.89452266693115 21.601571798324585Q75.89452266693115 19.861346006393433 75.1357364654541 18.601587533950806Q74.37695026397705 17.34182906150818 73.0029307603836 16.647497415542603Q71.62891125679016 15.953165769577026 69.75391411781311 15.953165769577026H63.097697019577026V40.0Z"/><path d="M80.81124713897705 40.0V21.4375H83.07301023483276V40.0ZM81.94398238731642 17.412134051322937Q81.26835639428285 17.412134051322937 80.78784738993241 16.931007473799895Q80.30733838558197 16.449880896276852 80.30733838558197 15.776303687744594Q80.30733838558197 15.097646236419678 80.78784738993241 14.62009984254837Q81.26835639428285 14.142553448677063 81.93852105560636 14.142553448677063Q82.62182620048523 14.142553448677063 83.09937259435654 14.620413718479021Q83.57691898822785 15.09827398828098 83.57691898822785 15.781560987234116Q83.57691898822785 16.45118224620819 83.09862852403096 16.931658148765564Q82.62033805983407 17.412134051322937 81.94398238731642 17.412134051322937Z"/><path d="M92.37250715255738 40.28125Q90.60297125339508 40.28125 89.14984589576721 39.67480307817459Q87.69672053813935 39.06835615634918 86.82953393220902 37.84667432308197Q85.96234732627869 36.62499248981476 85.96234732627869 34.808584451675415Q85.96234732627869 33.36130952835083 86.51899206399918 32.40915805101395Q87.07563680171967 31.457006573677063 88.07466310024262 30.871069967746735Q89.07368939876557 30.285133361816406 90.44770997524262 29.945292115211487Q91.82173055171967 29.605450868606567 93.45062213897705 29.39451551437378Q95.19085865974426 29.15428078174591 96.28655713558197 28.98436176776886Q97.38225561141968 28.81444275379181 97.90080493450165 28.47753208875656Q98.41935425758362 28.140621423721313 98.41935425758362 27.414060354232788V27.132816791534424Q98.41935425758362 25.97266912460327 97.83342301607132 25.073262214660645Q97.24749177455902 24.173855304718018 96.18402379512787 23.65530490875244Q95.12055581569672 23.136754512786865 93.69673520088196 23.136754512786865Q92.28463369369507 23.136754512786865 91.16550075769425 23.643585801124573Q90.04636782169342 24.15041708946228 89.38719242572785 25.0234557390213Q88.72801702976227 25.896494388580322 88.6811405992508 26.9921875H86.38422018051148Q86.44281571865082 25.304686427116394 87.39203554153443 23.98046749830246Q88.34125536441803 22.656248569488525 89.97016411781311 21.882811069488525Q91.5990728712082 21.109373569488525 93.69673520088196 21.109373569488525Q95.24947350978852 21.109373569488525 96.52974873542786 21.548826694488525Q97.8100239610672 21.988279819488525 98.7328755235672 22.791014552116394Q99.6557270860672 23.593749284744263 100.1567031121254 24.698242723941803Q100.6576791381836 25.802736163139343 100.6576791381836 27.132816791534424V40.0H98.41935425758362V36.96486806869507H98.36075979232788Q97.96232622623444 37.8261843919754 97.19182574510575 38.58496844768524Q96.42132526397705 39.34375250339508 95.22894817352295 39.81250125169754Q94.03657108306885 40.28125 92.37250715255738 40.28125ZM92.65376573562622 38.23043084144592Q94.50532680511475 38.23043084144592 95.79438036441803 37.52437901496887Q97.08343392372132 36.81832718849182 97.75139409065247 35.58201014995575Q98.41935425758362 34.34569311141968 98.41935425758362 32.74610733985901V30.144562005996704Q98.17326479911804 30.361355304718018 97.69865596055985 30.53420490026474Q97.22404712200165 30.707054495811462 96.55607783555985 30.850608468055725Q95.88810854911804 30.994162440299988 95.07658689975739 31.12306833267212Q94.26506525039673 31.25197422504425 93.3568692779541 31.375020027160645Q91.80416422843933 31.58595323562622 90.65866786003113 31.99610537290573Q89.51317149162293 32.40625751018524 88.8920791721344 33.10351866483688Q88.27098685264588 33.800779819488525 88.27098685264588 34.9257755279541Q88.27098685264588 35.974592208862305 88.83055144309998 36.71579599380493Q89.39011603355408 37.45699977874756 90.38034254074097 37.84371531009674Q91.37056904792786 38.23043084144592 92.65376573562622 38.23043084144592Z"/><path d="M106.71699460983277 28.726587533950806V40.0H104.45523151397705V21.4375H106.67011817932129V25.8437557220459H106.03729280471802Q106.85761102676392 23.41796910762787 108.56561383247376 22.263671338558197Q110.2736166381836 21.109373569488525 112.48260029792786 21.109373569488525Q114.41033181190491 21.109373569488525 115.95427730321884 21.938474416732788Q117.49822279453278 22.76757526397705 118.40642681360245 24.36132776737213Q119.31463083267212 25.955080270767212 119.31463083267212 28.281261444091797V40.0H117.05286773681641V28.42189073562622Q117.05286773681641 25.92580235004425 115.7228005194664 24.566435754299164Q114.3927333021164 23.207069158554077 112.10758885383606 23.207069158554077Q110.59587975978852 23.207069158554077 109.37420704603196 23.82522875070572Q108.1525343322754 24.44338834285736 107.43476447105408 25.670923829078674Q106.71699460983277 26.898459315299988 106.71699460983277 28.726587533950806Z"/><path d="M130.5536051940918 40.37500286102295Q128.04578911781311 40.37500286102295 126.13563090085984 39.13574504852295Q124.22547268390656 37.89648723602295 123.15906553983689 35.72265875339508Q122.09265839576722 33.54883027076721 122.09265839576722 30.742188215255737Q122.09265839576722 27.917968034744263 123.15906553983689 25.73534995317459Q124.22547268390656 23.55273187160492 126.13563090085984 22.307614505290985Q128.04578911781311 21.06249713897705 130.5536051940918 21.06249713897705Q133.07314037799836 21.06249713897705 134.97158002376557 22.307614505290985Q136.87001966953278 23.55273187160492 137.93642681360245 25.73534995317459Q139.00283395767212 27.917968034744263 139.00283395767212 30.742188215255737Q139.00283395767212 33.54883027076721 137.93642681360245 35.72265875339508Q136.87001966953278 37.89648723602295 134.97158002376557 39.13574504852295Q133.07314037799836 40.37500286102295 130.5536051940918 40.37500286102295ZM130.5536051940918 38.300745487213135Q132.4403160762787 38.300745487213135 133.8231203508377 37.35446161031723Q135.20592462539673 36.408177733421326 135.9617786359787 34.700178146362305Q136.71763264656067 32.992178559303284 136.71763264656067 30.742188215255737Q136.71763264656067 28.468759655952454 135.9617786359787 26.760760068893433Q135.20592462539673 25.05276048183441 133.8231203508377 24.09475749731064Q132.4403160762787 23.136754512786865 130.5536051940918 23.136754512786865Q128.67861341953278 23.136754512786865 127.28702008247376 24.088897943496704Q125.89542674541474 25.041041374206543 125.1366432261467 26.7549005150795Q124.37785970687867 28.468759655952454 124.37785970687867 30.742188215255737Q124.37785970687867 33.00389766693115 125.1366432261467 34.70603770017624Q125.89542674541474 36.408177733421326 127.28116052865983 37.35446161031723Q128.6668943119049 38.300745487213135 130.5536051940918 38.300745487213135Z"/><path d="M140.36054816246033 17.22856903076172V13.80859375H160.9360803604126V17.22856903076172H152.61810388565064V40.0H148.70735301971436V17.22856903076172Z"/><path d="M169.87211864471436 40.36421823501587Q167.97403412342072 40.36421823501587 166.44684546470643 39.5341796875Q164.91965680599213 38.70414113998413 164.03635441541672 37.062168419361115Q163.15305202484132 35.4201956987381 163.15305202484132 33.00038933753967V21.4375H166.8690380382538V32.542665004730225Q166.8690380382538 34.76735997200012 167.9421861100197 35.90677738189697Q169.0153341817856 37.04619479179382 170.93768411159516 37.04619479179382Q172.19628172397614 37.04619479179382 173.20878558635712 36.53607618808746Q174.2212894487381 36.0259575843811 174.81560849428178 34.93206745386124Q175.40992753982545 33.83817732334137 175.40992753982545 32.1172730922699V21.4375H179.12591355323792V40.0H175.4834039735794V35.389262318611145H176.33980970859528Q175.43523900985718 37.872700333595276 173.80926244735718 39.11845928430557Q172.18328588485718 40.36421823501587 169.87211864471436 40.36421823501587Z"/><path d="M186.2935692882538 29.320226907730103V40.0H182.57758327484132V21.4375H186.22009285449982V26.048237681388855H185.36368711948396Q186.26825781822205 23.55038547515869 187.89581634759904 22.31183362007141Q189.52337487697602 21.07328176498413 191.83137818336488 21.07328176498413Q193.74704082965852 21.07328176498413 195.2654404258728 21.9033203125Q196.7838400220871 22.73335886001587 197.6671424126625 24.36812448501587Q198.55044480323792 26.00289011001587 198.55044480323792 28.437110662460327V40.0H194.83445878982545V28.894834995269775Q194.83445878982545 26.66697609424591 193.77009978055955 25.529140651226044Q192.70574077129365 24.391305208206177 190.76581271648408 24.391305208206177Q189.5072151041031 24.391305208206177 188.49471124172211 24.901423811912537Q187.48220737934113 25.411542415618896 186.88788833379746 26.498225450515747Q186.2935692882538 27.584908485412598 186.2935692882538 29.320226907730103Z"/><path d="M209.93511139392854 40.421875Q207.18202661514283 40.421875 205.2018530869484 39.175410091876984Q203.22167955875398 37.92894518375397 202.15943520307542 35.738886654376984Q201.09719084739686 33.548828125 201.09719084739686 30.747578382492065Q201.09719084739686 27.914336323738098 202.20109580993653 25.718652665615082Q203.3050007724762 23.522969007492065 205.25564317941667 22.269297003746033Q207.20628558635713 21.015625 209.7368296289444 21.015625Q211.708390583992 21.015625 213.3036038184166 21.717168033123016Q214.8988170528412 22.418711066246033 216.04104219913484 23.714746415615082Q217.18326734542848 25.01078176498413 217.79428206920625 26.787051618099213Q218.40529679298402 28.563321471214294 218.40529679298402 30.712775111198425V31.728783011436462H202.76781224250794V28.915589928627014H216.46011268138886L214.8257129096985 29.774107098579407Q214.8257129096985 28.040194153785706 214.20432393789292 26.769290566444397Q213.58293496608735 25.49838697910309 212.45054816246034 24.804927051067352Q211.31816135883332 24.111467123031616 209.77163290023805 24.111467123031616Q208.24268256664277 24.111467123031616 207.1159208917618 24.804927051067352Q205.9891592168808 25.49838697910309 205.36777024507523 26.769290566444397Q204.74638127326966 28.040194153785706 204.74638127326966 29.774107098579407V31.37194514274597Q204.74638127326966 33.12660014629364 205.35810195446015 34.470277428627014Q205.96982263565064 35.81395471096039 207.1421115899086 36.56823533773422Q208.31440054416657 37.32251596450806 209.985734333992 37.32251596450806Q211.20284782886506 37.32251596450806 212.1336124444008 36.94897919893265Q213.06437705993653 36.57544243335724 213.68084364175797 35.905185759067535Q214.29731022357942 35.23492908477783 214.56274055480958 34.35355842113495H218.13318561553956Q217.78478704929353 36.15109658241272 216.63623403549195 37.51638871431351Q215.48768102169038 38.881680846214294 213.76010560035706 39.65177792310715Q212.03253017902375 40.421875 209.93511139392854 40.421875Z"/><path d="M220.88172389984132 40.0V21.4375H224.44442917823793V24.43773102760315H224.50841381073Q225.01817943573 22.917226433753967 226.11927344322206 22.062049686908722Q227.22036745071412 21.206872940063477 228.9922411632538 21.206872940063477Q229.4155216407776 21.206872940063477 229.77095081329347 21.235701322555542Q230.12637998580934 21.264529705047607 230.34645630836488 21.293358087539673V24.756229400634766Q230.13587178707124 24.712986826896667 229.58743621826173 24.64812296628952Q229.03900064945222 24.583259105682373 228.38544609069825 24.583259105682373Q227.35325910568238 24.583259105682373 226.48700859069825 25.06103241443634Q225.62075807571412 25.538805723190308 225.10923399448396 26.523357212543488Q224.5977099132538 27.507908701896667 224.5977099132538 29.02982521057129V40.0Z"/></g></svg>