<svg xmlns="http://www.w3.org/2000/svg" viewBox="0 0 162.274 56" width="162.274" height="56"><g fill="#141414" color="#141414" transform="translate(0 6.0) scale(1.375)"><path fill-rule="evenodd" d="M16 6 a10 10 0 1 0 0.01 0 Z M19.5 7.25 a7.75 7.75 0 1 0 0.01 0 Z"/></g><g fill="#141414"><path d="M69.25 40.421875Q66.2265625 40.421875 64.01171875 39.3408203125Q61.796875 38.259765625 60.583984375 36.2734375Q59.37109375 34.287109375 59.37109375 31.5625H62.60546875Q62.60546875 33.42578125 63.3876953125 34.7705078125Q64.169921875 36.115234375 65.6640625 36.8271484375Q67.158203125 37.5390625 69.25 37.5390625Q71.166015625 37.5390625 72.5810546875 36.9765625Q73.99609375 36.4140625 74.787109375 35.376953125Q75.578125 34.33984375 75.578125 32.93359375Q75.578125 31.84375 75.068359375 31.03515625Q74.55859375 30.2265625 73.4248046875 29.6201171875Q72.291015625 29.013671875 70.392578125 28.556640625L67.45703125 27.8359375Q63.44921875 26.8515625 61.673828125 25.19921875Q59.8984375 23.546875 59.8984375 20.875Q59.8984375 18.607421875 61.0146484375 16.9287109375Q62.130859375 15.25 64.169921875 14.318359375Q66.208984375 13.38671875 68.93359375 13.38671875Q71.658203125 13.38671875 73.6708984375 14.3798828125Q75.68359375 15.373046875 76.80859375 17.201171875Q77.93359375 19.029296875 78.00390625 21.54296875H74.875Q74.734375 19.08203125 73.1171875 17.6845703125Q71.5 16.287109375 68.828125 16.287109375Q67.140625 16.287109375 65.8310546875 16.849609375Q64.521484375 17.412109375 63.7744140625 18.4140625Q63.02734375 19.416015625 63.02734375 20.716796875Q63.02734375 21.736328125 63.5546875 22.4921875Q64.08203125 23.248046875 65.2333984375 23.828125Q66.384765625 24.408203125 68.283203125 24.8828125L71.25390625 25.62109375Q73.169921875 26.095703125 74.576171875 26.763671875Q75.982421875 27.431640625 76.9052734375 28.310546875Q77.828125 29.189453125 78.28515625 30.3056640625Q78.7421875 31.421875 78.7421875 32.79296875Q78.7421875 35.060546875 77.5556640625 36.783203125Q76.369140625 38.505859375 74.2333984375 39.4638671875Q72.09765625 40.421875 69.25 40.421875Z"/><path d="M89.2721875 40.421875Q86.70578125 40.421875 84.7633984375 39.1826171875Q82.821015625 37.943359375 81.7399609375 35.763671875Q80.65890625 33.583984375 80.65890625 30.75390625Q80.65890625 27.90625 81.7399609375 25.708984375Q82.821015625 23.51171875 84.7633984375 22.263671875Q86.70578125 21.015625 89.2721875 21.015625Q91.856171875 21.015625 93.789765625 22.263671875Q95.723359375 23.51171875 96.8044140625 25.708984375Q97.88546875 27.90625 97.88546875 30.75390625Q97.88546875 33.583984375 96.8044140625 35.763671875Q95.723359375 37.943359375 93.789765625 39.1826171875Q91.856171875 40.421875 89.2721875 40.421875ZM89.2721875 37.71484375Q91.03 37.71484375 92.278046875 36.853515625Q93.52609375 35.9921875 94.1940625 34.4189453125Q94.86203125 32.845703125 94.86203125 30.75390625Q94.86203125 28.626953125 94.1940625 27.0537109375Q93.52609375 25.48046875 92.278046875 24.6015625Q91.03 23.72265625 89.2721875 23.72265625Q87.531953125 23.72265625 86.2751171875 24.5927734375Q85.01828125 25.462890625 84.3503125 27.044921875Q83.68234375 28.626953125 83.68234375 30.75390625Q83.68234375 32.86328125 84.3503125 34.427734375Q85.01828125 35.9921875 86.266328125 36.853515625Q87.514375 37.71484375 89.2721875 37.71484375Z"/><path d="M100.6459375 40.0V21.4375H103.56390625V25.234375H103.194765625Q103.7396875 23.880859375 104.6273828125 22.9580078125Q105.515078125 22.03515625 106.65765625 21.560546875Q107.800234375 21.0859375 109.065859375 21.0859375Q111.245546875 21.0859375 112.7660546875 22.3251953125Q114.2865625 23.564453125 114.655703125 25.234375H114.04046875Q114.444765625 24.091796875 115.30609375 23.1513671875Q116.167421875 22.2109375 117.4242578125 21.6484375Q118.68109375 21.0859375 120.2419993622449 21.0859375Q121.94321109693878 21.0859375 123.34627232142859 21.82421875Q124.74933354591838 22.5625 125.58240114795919 24.056640625Q126.41546875 25.55078125 126.41546875 27.8359375V40.0H123.4271875V27.8359375Q123.4271875 25.680625 122.2160080199115 24.754375Q121.00482853982301 23.828125 119.401796875 23.828125Q118.05088541666666 23.828125 117.06922309027777 24.390913165983605Q116.08756076388889 24.95370133196721 115.55620225694445 25.936347336065573Q115.02484375 26.918993340163937 115.02484375 28.1875V40.0H112.0365625V27.51953125Q112.0365625 25.849609375 110.9203515625 24.8388671875Q109.804140625 23.828125 108.10992897727273 23.828125Q106.9507315340909 23.828125 105.92528764204545 24.373046875Q104.89984375 24.91796875 104.26703125 25.997888008373206Q103.63421875 27.07780726674641 103.63421875 28.6796875V40.0Z"/><path d="M133.1134375 29.13671875V40.0H130.12515625V21.4375H133.043125V25.9375H132.199375Q133.1134375 23.423828125 134.7394140625 22.2548828125Q136.365390625 21.0859375 138.56265625 21.0859375Q140.443515625 21.0859375 141.990390625 21.9033203125Q143.537265625 22.720703125 144.4601171875 24.35546875Q145.38296875 25.990234375 145.38296875 28.46875V40.0H142.3946875V28.6796875Q142.3946875 26.271484375 141.2433203125 25.0498046875Q140.091953125 23.828125 138.00015625 23.828125Q136.646640625 23.828125 135.53921875 24.373046875Q134.431796875 24.91796875 133.7726171875 26.0869140625Q133.1134375 27.255859375 133.1134375 29.13671875Z"/><path d="M149.09265625 40.0V21.4375H152.0809375V40.0ZM150.586796875 17.81640625Q149.743046875 17.81640625 149.145390625 17.216681985294116Q148.547734375 16.616957720588236 148.547734375 15.77734375Q148.547734375 14.93359375 149.145390625 14.3359375Q149.743046875 13.73828125 150.57860512742718 13.73828125Q151.430546875 13.73828125 152.028203125 14.3359375Q152.625859375 14.93359375 152.625859375 15.785866477272727Q152.625859375 16.62109375 152.02708705357145 17.21875Q151.42831473214287 17.81640625 150.586796875 17.81640625Z"/><path d="M158.77890625 13.80859375V40.0H155.790625V13.80859375Z"/></g></svg>